<mxfile host="app.diagrams.net" modified="2021-01-27T09:10:36.646Z" agent="5.0 (Macintosh; Intel Mac OS X 10_14_5) AppleWebKit/537.36 (KHTML, like Gecko) Chrome/88.0.4324.96 Safari/537.36" etag="TgP-xErONqQEXi41Tmx3" version="14.2.7" type="github">
  <diagram id="prtHgNgQTEPvFCAcTncT" name="Page-1">
    <mxGraphModel dx="1188" dy="662" grid="1" gridSize="10" guides="1" tooltips="1" connect="1" arrows="1" fold="1" page="1" pageScale="1" pageWidth="827" pageHeight="1169" math="0" shadow="0">
      <root>
        <mxCell id="0" />
        <mxCell id="1" parent="0" />
        <mxCell id="kcl3Uq8IHJ8QSEK5oFKa-61" value="开发" style="swimlane;html=1;startSize=20;horizontal=0;" vertex="1" parent="1">
          <mxGeometry x="110" y="850" width="1160" height="120" as="geometry">
            <mxRectangle x="20" width="580" height="20" as="alternateBounds" />
          </mxGeometry>
        </mxCell>
        <mxCell id="kcl3Uq8IHJ8QSEK5oFKa-139" value="&lt;span style=&quot;font-size: 13px&quot;&gt;联调&lt;/span&gt;" style="rounded=0;whiteSpace=wrap;html=1;fontFamily=Helvetica;fontSize=12;fontColor=#000000;align=center;" vertex="1" parent="kcl3Uq8IHJ8QSEK5oFKa-61">
          <mxGeometry x="1071" y="40" width="60" height="30" as="geometry" />
        </mxCell>
        <mxCell id="kcl3Uq8IHJ8QSEK5oFKa-94" value="实施" style="swimlane;html=1;startSize=20;horizontal=0;" vertex="1" parent="1">
          <mxGeometry x="110" y="660" width="1160" height="190" as="geometry">
            <mxRectangle x="20" width="580" height="20" as="alternateBounds" />
          </mxGeometry>
        </mxCell>
        <mxCell id="kcl3Uq8IHJ8QSEK5oFKa-127" value="&lt;span style=&quot;font-size: 13px&quot;&gt;准备纳排结局数据&lt;/span&gt;" style="rounded=0;whiteSpace=wrap;html=1;fontFamily=Helvetica;fontSize=12;fontColor=#000000;align=center;" vertex="1" parent="kcl3Uq8IHJ8QSEK5oFKa-94">
          <mxGeometry x="40" y="30" width="110" height="30" as="geometry" />
        </mxCell>
        <mxCell id="kcl3Uq8IHJ8QSEK5oFKa-128" value="&lt;font style=&quot;font-size: 10px&quot;&gt;纳排结局文件&lt;/font&gt;" style="shape=note;whiteSpace=wrap;html=1;backgroundOutline=1;darkOpacity=0.05;" vertex="1" parent="kcl3Uq8IHJ8QSEK5oFKa-94">
          <mxGeometry x="40" y="60" width="110" height="30" as="geometry" />
        </mxCell>
        <mxCell id="kcl3Uq8IHJ8QSEK5oFKa-129" value="&lt;span style=&quot;font-size: 13px&quot;&gt;执行建模数据集构建任务&lt;/span&gt;" style="rounded=0;whiteSpace=wrap;html=1;fontFamily=Helvetica;fontSize=12;fontColor=#000000;align=center;" vertex="1" parent="kcl3Uq8IHJ8QSEK5oFKa-94">
          <mxGeometry x="210" y="30" width="80" height="30" as="geometry" />
        </mxCell>
        <mxCell id="kcl3Uq8IHJ8QSEK5oFKa-130" value="&lt;span style=&quot;font-size: 10px&quot;&gt;数据集、分析报告等&lt;br&gt;&lt;/span&gt;" style="shape=note;whiteSpace=wrap;html=1;backgroundOutline=1;darkOpacity=0.05;" vertex="1" parent="kcl3Uq8IHJ8QSEK5oFKa-94">
          <mxGeometry x="210" y="60" width="110" height="30" as="geometry" />
        </mxCell>
        <mxCell id="kcl3Uq8IHJ8QSEK5oFKa-132" value="&lt;span style=&quot;font-size: 13px&quot;&gt;执行建模任务&lt;/span&gt;" style="rounded=0;whiteSpace=wrap;html=1;fontFamily=Helvetica;fontSize=12;fontColor=#000000;align=center;" vertex="1" parent="kcl3Uq8IHJ8QSEK5oFKa-94">
          <mxGeometry x="850" y="30" width="90" height="30" as="geometry" />
        </mxCell>
        <mxCell id="kcl3Uq8IHJ8QSEK5oFKa-133" value="&lt;span style=&quot;font-size: 13px&quot;&gt;预训练&lt;/span&gt;" style="rounded=0;whiteSpace=wrap;html=1;fontFamily=Helvetica;fontSize=12;fontColor=#000000;align=center;" vertex="1" parent="kcl3Uq8IHJ8QSEK5oFKa-94">
          <mxGeometry x="722" y="30" width="60" height="30" as="geometry" />
        </mxCell>
        <mxCell id="kcl3Uq8IHJ8QSEK5oFKa-136" value="&lt;span style=&quot;font-size: 10px&quot;&gt;预训练文档&lt;br&gt;&lt;/span&gt;" style="shape=note;whiteSpace=wrap;html=1;backgroundOutline=1;darkOpacity=0.05;" vertex="1" parent="kcl3Uq8IHJ8QSEK5oFKa-94">
          <mxGeometry x="722" y="60" width="68" height="20" as="geometry" />
        </mxCell>
        <mxCell id="kcl3Uq8IHJ8QSEK5oFKa-140" value="&lt;span style=&quot;font-size: 13px&quot;&gt;部署&lt;/span&gt;" style="rounded=0;whiteSpace=wrap;html=1;fontFamily=Helvetica;fontSize=12;fontColor=#000000;align=center;" vertex="1" parent="kcl3Uq8IHJ8QSEK5oFKa-94">
          <mxGeometry x="1071" y="30" width="60" height="30" as="geometry" />
        </mxCell>
        <mxCell id="kcl3Uq8IHJ8QSEK5oFKa-148" value="" style="endArrow=classic;html=1;exitX=1;exitY=0.5;exitDx=0;exitDy=0;" edge="1" parent="kcl3Uq8IHJ8QSEK5oFKa-94" source="kcl3Uq8IHJ8QSEK5oFKa-127" target="kcl3Uq8IHJ8QSEK5oFKa-129">
          <mxGeometry width="50" height="50" relative="1" as="geometry">
            <mxPoint x="150" y="47" as="sourcePoint" />
            <mxPoint x="200" as="targetPoint" />
          </mxGeometry>
        </mxCell>
        <mxCell id="kcl3Uq8IHJ8QSEK5oFKa-149" value="" style="endArrow=classic;html=1;exitX=1;exitY=0.5;exitDx=0;exitDy=0;entryX=0;entryY=0.5;entryDx=0;entryDy=0;" edge="1" parent="kcl3Uq8IHJ8QSEK5oFKa-94" target="kcl3Uq8IHJ8QSEK5oFKa-133">
          <mxGeometry width="50" height="50" relative="1" as="geometry">
            <mxPoint x="290" y="44.58000000000004" as="sourcePoint" />
            <mxPoint x="470" y="45" as="targetPoint" />
          </mxGeometry>
        </mxCell>
        <mxCell id="kcl3Uq8IHJ8QSEK5oFKa-157" value="N" style="edgeLabel;html=1;align=center;verticalAlign=middle;resizable=0;points=[];" vertex="1" connectable="0" parent="kcl3Uq8IHJ8QSEK5oFKa-149">
          <mxGeometry x="0.6281" y="1" relative="1" as="geometry">
            <mxPoint as="offset" />
          </mxGeometry>
        </mxCell>
        <mxCell id="kcl3Uq8IHJ8QSEK5oFKa-154" value="" style="endArrow=classic;html=1;exitX=1;exitY=0.5;exitDx=0;exitDy=0;entryX=0;entryY=0.5;entryDx=0;entryDy=0;" edge="1" parent="kcl3Uq8IHJ8QSEK5oFKa-94" source="kcl3Uq8IHJ8QSEK5oFKa-133" target="kcl3Uq8IHJ8QSEK5oFKa-132">
          <mxGeometry width="50" height="50" relative="1" as="geometry">
            <mxPoint x="592" y="44.58000000000004" as="sourcePoint" />
            <mxPoint x="652" y="44.58000000000004" as="targetPoint" />
            <Array as="points">
              <mxPoint x="790" y="45" />
            </Array>
          </mxGeometry>
        </mxCell>
        <mxCell id="kcl3Uq8IHJ8QSEK5oFKa-155" value="&lt;span style=&quot;font-size: 10px&quot;&gt;建模文档&lt;br&gt;&lt;/span&gt;" style="shape=note;whiteSpace=wrap;html=1;backgroundOutline=1;darkOpacity=0.05;" vertex="1" parent="kcl3Uq8IHJ8QSEK5oFKa-94">
          <mxGeometry x="850" y="60" width="60" height="20" as="geometry" />
        </mxCell>
        <mxCell id="kcl3Uq8IHJ8QSEK5oFKa-156" value="程序中断/数据异常" style="rhombus;whiteSpace=wrap;html=1;" vertex="1" parent="kcl3Uq8IHJ8QSEK5oFKa-94">
          <mxGeometry x="490" y="20" width="100" height="50" as="geometry" />
        </mxCell>
        <mxCell id="kcl3Uq8IHJ8QSEK5oFKa-172" value="&lt;span style=&quot;font-size: 13px&quot;&gt;修复数据库等&lt;br&gt;&lt;/span&gt;" style="rounded=0;whiteSpace=wrap;html=1;fontFamily=Helvetica;fontSize=12;fontColor=#000000;align=center;" vertex="1" parent="kcl3Uq8IHJ8QSEK5oFKa-94">
          <mxGeometry x="647" y="110" width="86.5" height="30" as="geometry" />
        </mxCell>
        <mxCell id="kcl3Uq8IHJ8QSEK5oFKa-174" value="&lt;span style=&quot;font-size: 10px&quot;&gt;修复报告&lt;br&gt;&lt;/span&gt;" style="shape=note;whiteSpace=wrap;html=1;backgroundOutline=1;darkOpacity=0.05;" vertex="1" parent="kcl3Uq8IHJ8QSEK5oFKa-94">
          <mxGeometry x="647" y="140" width="50" height="20" as="geometry" />
        </mxCell>
        <mxCell id="kcl3Uq8IHJ8QSEK5oFKa-180" value="" style="endArrow=none;dashed=1;html=1;dashPattern=1 3;strokeWidth=2;" edge="1" parent="kcl3Uq8IHJ8QSEK5oFKa-94">
          <mxGeometry width="50" height="50" relative="1" as="geometry">
            <mxPoint x="30" y="19.999999999999886" as="sourcePoint" />
            <mxPoint x="340" y="20" as="targetPoint" />
          </mxGeometry>
        </mxCell>
        <mxCell id="kcl3Uq8IHJ8QSEK5oFKa-199" value="" style="endArrow=none;dashed=1;html=1;dashPattern=1 3;strokeWidth=2;" edge="1" parent="kcl3Uq8IHJ8QSEK5oFKa-94">
          <mxGeometry width="50" height="50" relative="1" as="geometry">
            <mxPoint x="30" y="100" as="sourcePoint" />
            <mxPoint x="340" y="100" as="targetPoint" />
          </mxGeometry>
        </mxCell>
        <mxCell id="kcl3Uq8IHJ8QSEK5oFKa-200" value="" style="endArrow=none;dashed=1;html=1;dashPattern=1 3;strokeWidth=2;" edge="1" parent="kcl3Uq8IHJ8QSEK5oFKa-94">
          <mxGeometry width="50" height="50" relative="1" as="geometry">
            <mxPoint x="340" y="19.999999999999886" as="sourcePoint" />
            <mxPoint x="340" y="100" as="targetPoint" />
          </mxGeometry>
        </mxCell>
        <mxCell id="kcl3Uq8IHJ8QSEK5oFKa-201" value="" style="endArrow=none;dashed=1;html=1;dashPattern=1 3;strokeWidth=2;" edge="1" parent="kcl3Uq8IHJ8QSEK5oFKa-94">
          <mxGeometry width="50" height="50" relative="1" as="geometry">
            <mxPoint x="30" y="20" as="sourcePoint" />
            <mxPoint x="30" y="100" as="targetPoint" />
          </mxGeometry>
        </mxCell>
        <mxCell id="kcl3Uq8IHJ8QSEK5oFKa-138" value="&lt;span style=&quot;font-size: 13px&quot;&gt;DSL开发&lt;/span&gt;" style="rounded=0;whiteSpace=wrap;html=1;fontFamily=Helvetica;fontSize=12;fontColor=#000000;align=center;" vertex="1" parent="kcl3Uq8IHJ8QSEK5oFKa-94">
          <mxGeometry x="960" y="100" width="60" height="30" as="geometry" />
        </mxCell>
        <mxCell id="kcl3Uq8IHJ8QSEK5oFKa-99" value="测试" style="swimlane;html=1;startSize=20;horizontal=0;" vertex="1" parent="1">
          <mxGeometry x="110" y="580" width="1160" height="80" as="geometry">
            <mxRectangle x="20" width="580" height="20" as="alternateBounds" />
          </mxGeometry>
        </mxCell>
        <mxCell id="kcl3Uq8IHJ8QSEK5oFKa-141" value="&lt;span style=&quot;font-size: 13px&quot;&gt;测试&lt;/span&gt;" style="rounded=0;whiteSpace=wrap;html=1;fontFamily=Helvetica;fontSize=12;fontColor=#000000;align=center;" vertex="1" parent="kcl3Uq8IHJ8QSEK5oFKa-99">
          <mxGeometry x="1065" y="25" width="60" height="30" as="geometry" />
        </mxCell>
        <mxCell id="kcl3Uq8IHJ8QSEK5oFKa-220" value="" style="endArrow=classic;html=1;exitX=0.442;exitY=1.017;exitDx=0;exitDy=0;exitPerimeter=0;" edge="1" parent="kcl3Uq8IHJ8QSEK5oFKa-99">
          <mxGeometry width="50" height="50" relative="1" as="geometry">
            <mxPoint x="1094.8699999999997" y="55" as="sourcePoint" />
            <mxPoint x="1094.5801389790884" y="116.99000000000001" as="targetPoint" />
          </mxGeometry>
        </mxCell>
        <mxCell id="kcl3Uq8IHJ8QSEK5oFKa-104" value="机器学习" style="swimlane;html=1;startSize=20;horizontal=0;" vertex="1" parent="1">
          <mxGeometry x="110" y="460" width="1160" height="120" as="geometry">
            <mxRectangle x="20" width="580" height="20" as="alternateBounds" />
          </mxGeometry>
        </mxCell>
        <mxCell id="kcl3Uq8IHJ8QSEK5oFKa-131" value="&lt;span style=&quot;font-size: 13px&quot;&gt;准备部署包&lt;/span&gt;" style="rounded=0;whiteSpace=wrap;html=1;fontFamily=Helvetica;fontSize=12;fontColor=#000000;align=center;" vertex="1" parent="kcl3Uq8IHJ8QSEK5oFKa-104">
          <mxGeometry x="1060" y="52.5" width="80" height="30" as="geometry" />
        </mxCell>
        <mxCell id="kcl3Uq8IHJ8QSEK5oFKa-135" value="&lt;span style=&quot;font-size: 13px&quot;&gt;训练系统部署包&lt;/span&gt;" style="rounded=0;whiteSpace=wrap;html=1;fontFamily=Helvetica;fontSize=12;fontColor=#000000;align=center;" vertex="1" parent="kcl3Uq8IHJ8QSEK5oFKa-104">
          <mxGeometry x="120" y="60" width="100" height="30" as="geometry" />
        </mxCell>
        <mxCell id="kcl3Uq8IHJ8QSEK5oFKa-145" value="" style="endArrow=classic;html=1;" edge="1" parent="kcl3Uq8IHJ8QSEK5oFKa-104">
          <mxGeometry width="50" height="50" relative="1" as="geometry">
            <mxPoint x="250" y="-70" as="sourcePoint" />
            <mxPoint x="250" y="300" as="targetPoint" />
          </mxGeometry>
        </mxCell>
        <mxCell id="kcl3Uq8IHJ8QSEK5oFKa-159" value="&lt;span style=&quot;font-size: 13px&quot;&gt;协助排查&lt;/span&gt;" style="rounded=0;whiteSpace=wrap;html=1;fontFamily=Helvetica;fontSize=12;fontColor=#000000;align=center;" vertex="1" parent="kcl3Uq8IHJ8QSEK5oFKa-104">
          <mxGeometry x="515" y="60" width="100" height="30" as="geometry" />
        </mxCell>
        <mxCell id="kcl3Uq8IHJ8QSEK5oFKa-171" value="&lt;font style=&quot;font-size: 9px&quot;&gt;是否需要实施介入&lt;/font&gt;" style="rhombus;whiteSpace=wrap;html=1;" vertex="1" parent="kcl3Uq8IHJ8QSEK5oFKa-104">
          <mxGeometry x="647" y="52.5" width="83" height="45" as="geometry" />
        </mxCell>
        <mxCell id="kcl3Uq8IHJ8QSEK5oFKa-176" value="" style="endArrow=classic;html=1;exitX=1;exitY=0.5;exitDx=0;exitDy=0;entryX=0;entryY=0.5;entryDx=0;entryDy=0;" edge="1" parent="kcl3Uq8IHJ8QSEK5oFKa-104" source="kcl3Uq8IHJ8QSEK5oFKa-159" target="kcl3Uq8IHJ8QSEK5oFKa-171">
          <mxGeometry width="50" height="50" relative="1" as="geometry">
            <mxPoint x="510" y="160" as="sourcePoint" />
            <mxPoint x="560" y="110" as="targetPoint" />
          </mxGeometry>
        </mxCell>
        <mxCell id="kcl3Uq8IHJ8QSEK5oFKa-109" value="CDSS" style="swimlane;html=1;startSize=20;horizontal=0;" vertex="1" parent="1">
          <mxGeometry x="110" y="270" width="1160" height="190" as="geometry">
            <mxRectangle x="20" width="580" height="20" as="alternateBounds" />
          </mxGeometry>
        </mxCell>
        <mxCell id="kcl3Uq8IHJ8QSEK5oFKa-112" value="&lt;font style=&quot;font-size: 13px&quot;&gt;设计纳排结局需求&lt;/font&gt;" style="rounded=0;whiteSpace=wrap;html=1;fontFamily=Helvetica;fontSize=12;fontColor=#000000;align=center;" vertex="1" parent="kcl3Uq8IHJ8QSEK5oFKa-109">
          <mxGeometry x="50" y="40" width="110" height="30" as="geometry" />
        </mxCell>
        <mxCell id="kcl3Uq8IHJ8QSEK5oFKa-115" value="&lt;font style=&quot;font-size: 10px&quot;&gt;纳排结局需求文档&lt;/font&gt;" style="shape=note;whiteSpace=wrap;html=1;backgroundOutline=1;darkOpacity=0.05;" vertex="1" parent="kcl3Uq8IHJ8QSEK5oFKa-109">
          <mxGeometry x="50" y="70" width="110" height="30" as="geometry" />
        </mxCell>
        <mxCell id="kcl3Uq8IHJ8QSEK5oFKa-119" value="&lt;span style=&quot;font-size: 13px&quot;&gt;原始特征工程配置表&lt;/span&gt;" style="rounded=0;whiteSpace=wrap;html=1;fontFamily=Helvetica;fontSize=12;fontColor=#000000;align=center;" vertex="1" parent="kcl3Uq8IHJ8QSEK5oFKa-109">
          <mxGeometry x="200" y="40" width="110" height="30" as="geometry" />
        </mxCell>
        <mxCell id="kcl3Uq8IHJ8QSEK5oFKa-120" value="&lt;font style=&quot;font-size: 11px&quot;&gt;配置表（.xlsx）&lt;/font&gt;" style="shape=note;whiteSpace=wrap;html=1;backgroundOutline=1;darkOpacity=0.05;" vertex="1" parent="kcl3Uq8IHJ8QSEK5oFKa-109">
          <mxGeometry x="200" y="120" width="110" height="30" as="geometry" />
        </mxCell>
        <mxCell id="kcl3Uq8IHJ8QSEK5oFKa-121" value="特征配置检测" style="rhombus;whiteSpace=wrap;html=1;" vertex="1" parent="kcl3Uq8IHJ8QSEK5oFKa-109">
          <mxGeometry x="390" y="30" width="100" height="50" as="geometry" />
        </mxCell>
        <mxCell id="kcl3Uq8IHJ8QSEK5oFKa-122" value="" style="endArrow=classic;html=1;exitX=1;exitY=0.5;exitDx=0;exitDy=0;" edge="1" parent="kcl3Uq8IHJ8QSEK5oFKa-109" source="kcl3Uq8IHJ8QSEK5oFKa-119" target="kcl3Uq8IHJ8QSEK5oFKa-121">
          <mxGeometry width="50" height="50" relative="1" as="geometry">
            <mxPoint x="150" y="60" as="sourcePoint" />
            <mxPoint x="200" y="10" as="targetPoint" />
          </mxGeometry>
        </mxCell>
        <mxCell id="kcl3Uq8IHJ8QSEK5oFKa-123" value="N" style="endArrow=classic;html=1;entryX=0.5;entryY=0;entryDx=0;entryDy=0;exitX=0.5;exitY=0;exitDx=0;exitDy=0;edgeStyle=orthogonalEdgeStyle;" edge="1" parent="kcl3Uq8IHJ8QSEK5oFKa-109" source="kcl3Uq8IHJ8QSEK5oFKa-121" target="kcl3Uq8IHJ8QSEK5oFKa-119">
          <mxGeometry width="50" height="50" relative="1" as="geometry">
            <mxPoint x="400" y="40" as="sourcePoint" />
            <mxPoint x="360" y="64.99999999999989" as="targetPoint" />
          </mxGeometry>
        </mxCell>
        <mxCell id="kcl3Uq8IHJ8QSEK5oFKa-126" value="&lt;span style=&quot;font-size: 13px&quot;&gt;最终特征工程配置表&lt;/span&gt;" style="rounded=0;whiteSpace=wrap;html=1;fontFamily=Helvetica;fontSize=12;fontColor=#000000;align=center;" vertex="1" parent="kcl3Uq8IHJ8QSEK5oFKa-109">
          <mxGeometry x="200" y="90" width="110" height="30" as="geometry" />
        </mxCell>
        <mxCell id="kcl3Uq8IHJ8QSEK5oFKa-125" value="Y" style="endArrow=classic;html=1;exitX=0.5;exitY=1;exitDx=0;exitDy=0;entryX=1;entryY=0.5;entryDx=0;entryDy=0;edgeStyle=orthogonalEdgeStyle;" edge="1" parent="kcl3Uq8IHJ8QSEK5oFKa-109" source="kcl3Uq8IHJ8QSEK5oFKa-121" target="kcl3Uq8IHJ8QSEK5oFKa-126">
          <mxGeometry width="50" height="50" relative="1" as="geometry">
            <mxPoint x="330" y="74.99999999999989" as="sourcePoint" />
            <mxPoint x="440" y="110" as="targetPoint" />
          </mxGeometry>
        </mxCell>
        <mxCell id="kcl3Uq8IHJ8QSEK5oFKa-137" value="&lt;span style=&quot;font-size: 13px&quot;&gt;确定训练参数&lt;/span&gt;" style="rounded=0;whiteSpace=wrap;html=1;fontFamily=Helvetica;fontSize=12;fontColor=#000000;align=center;" vertex="1" parent="kcl3Uq8IHJ8QSEK5oFKa-109">
          <mxGeometry x="710" y="50" width="100" height="30" as="geometry" />
        </mxCell>
        <mxCell id="kcl3Uq8IHJ8QSEK5oFKa-152" value="&lt;span style=&quot;font-size: 11px&quot;&gt;训练配置文件&lt;/span&gt;" style="shape=note;whiteSpace=wrap;html=1;backgroundOutline=1;darkOpacity=0.05;" vertex="1" parent="kcl3Uq8IHJ8QSEK5oFKa-109">
          <mxGeometry x="710" y="80" width="110" height="30" as="geometry" />
        </mxCell>
        <mxCell id="kcl3Uq8IHJ8QSEK5oFKa-162" value="调整配置" style="rhombus;whiteSpace=wrap;html=1;" vertex="1" parent="kcl3Uq8IHJ8QSEK5oFKa-109">
          <mxGeometry x="530" y="120" width="70" height="20" as="geometry" />
        </mxCell>
        <mxCell id="kcl3Uq8IHJ8QSEK5oFKa-166" value="" style="endArrow=none;dashed=1;html=1;dashPattern=1 3;strokeWidth=2;" edge="1" parent="kcl3Uq8IHJ8QSEK5oFKa-109">
          <mxGeometry width="50" height="50" relative="1" as="geometry">
            <mxPoint x="40" y="159.9999999999999" as="sourcePoint" />
            <mxPoint x="500" y="159.9999999999999" as="targetPoint" />
          </mxGeometry>
        </mxCell>
        <mxCell id="kcl3Uq8IHJ8QSEK5oFKa-167" value="" style="endArrow=none;dashed=1;html=1;dashPattern=1 3;strokeWidth=2;" edge="1" parent="kcl3Uq8IHJ8QSEK5oFKa-109">
          <mxGeometry width="50" height="50" relative="1" as="geometry">
            <mxPoint x="40" y="9.999999999999886" as="sourcePoint" />
            <mxPoint x="40" y="160" as="targetPoint" />
          </mxGeometry>
        </mxCell>
        <mxCell id="kcl3Uq8IHJ8QSEK5oFKa-204" value="模型效果" style="rhombus;whiteSpace=wrap;html=1;" vertex="1" parent="kcl3Uq8IHJ8QSEK5oFKa-109">
          <mxGeometry x="930" y="85" width="70" height="20" as="geometry" />
        </mxCell>
        <mxCell id="kcl3Uq8IHJ8QSEK5oFKa-205" value="" style="endArrow=classic;html=1;exitX=0.5;exitY=0;exitDx=0;exitDy=0;edgeStyle=orthogonalEdgeStyle;" edge="1" parent="kcl3Uq8IHJ8QSEK5oFKa-109" source="kcl3Uq8IHJ8QSEK5oFKa-204">
          <mxGeometry width="50" height="50" relative="1" as="geometry">
            <mxPoint x="600" y="320" as="sourcePoint" />
            <mxPoint x="500" y="40" as="targetPoint" />
            <Array as="points">
              <mxPoint x="965" y="20" />
              <mxPoint x="600" y="20" />
              <mxPoint x="600" y="40" />
            </Array>
          </mxGeometry>
        </mxCell>
        <mxCell id="kcl3Uq8IHJ8QSEK5oFKa-207" value="N" style="edgeLabel;html=1;align=center;verticalAlign=middle;resizable=0;points=[];" vertex="1" connectable="0" parent="kcl3Uq8IHJ8QSEK5oFKa-205">
          <mxGeometry x="-0.4861" y="1" relative="1" as="geometry">
            <mxPoint y="-1" as="offset" />
          </mxGeometry>
        </mxCell>
        <mxCell id="kcl3Uq8IHJ8QSEK5oFKa-144" value="" style="endArrow=classic;html=1;entryX=0.5;entryY=0;entryDx=0;entryDy=0;" edge="1" parent="1" target="kcl3Uq8IHJ8QSEK5oFKa-127">
          <mxGeometry width="50" height="50" relative="1" as="geometry">
            <mxPoint x="205" y="371" as="sourcePoint" />
            <mxPoint x="580" y="610" as="targetPoint" />
          </mxGeometry>
        </mxCell>
        <mxCell id="kcl3Uq8IHJ8QSEK5oFKa-147" value="" style="endArrow=none;html=1;" edge="1" parent="1">
          <mxGeometry width="50" height="50" relative="1" as="geometry">
            <mxPoint x="360" y="535" as="sourcePoint" />
            <mxPoint x="330" y="535" as="targetPoint" />
          </mxGeometry>
        </mxCell>
        <mxCell id="kcl3Uq8IHJ8QSEK5oFKa-151" value="" style="endArrow=classic;html=1;exitX=0.5;exitY=0;exitDx=0;exitDy=0;entryX=0.42;entryY=0.961;entryDx=0;entryDy=0;entryPerimeter=0;" edge="1" parent="1" source="kcl3Uq8IHJ8QSEK5oFKa-133" target="kcl3Uq8IHJ8QSEK5oFKa-137">
          <mxGeometry width="50" height="50" relative="1" as="geometry">
            <mxPoint x="980" y="390" as="sourcePoint" />
            <mxPoint x="980" y="760" as="targetPoint" />
          </mxGeometry>
        </mxCell>
        <mxCell id="kcl3Uq8IHJ8QSEK5oFKa-153" value="" style="endArrow=classic;html=1;exitX=1;exitY=0.5;exitDx=0;exitDy=0;entryX=0.5;entryY=0;entryDx=0;entryDy=0;edgeStyle=orthogonalEdgeStyle;" edge="1" parent="1" source="kcl3Uq8IHJ8QSEK5oFKa-137" target="kcl3Uq8IHJ8QSEK5oFKa-132">
          <mxGeometry width="50" height="50" relative="1" as="geometry">
            <mxPoint x="990" y="340" as="sourcePoint" />
            <mxPoint x="990" y="710" as="targetPoint" />
          </mxGeometry>
        </mxCell>
        <mxCell id="kcl3Uq8IHJ8QSEK5oFKa-158" style="edgeStyle=orthogonalEdgeStyle;rounded=0;orthogonalLoop=1;jettySize=auto;html=1;exitX=0.5;exitY=0;exitDx=0;exitDy=0;entryX=0.5;entryY=1;entryDx=0;entryDy=0;" edge="1" parent="1" source="kcl3Uq8IHJ8QSEK5oFKa-156" target="kcl3Uq8IHJ8QSEK5oFKa-159">
          <mxGeometry relative="1" as="geometry">
            <mxPoint x="510" y="570" as="targetPoint" />
          </mxGeometry>
        </mxCell>
        <mxCell id="kcl3Uq8IHJ8QSEK5oFKa-160" value="Y" style="edgeLabel;html=1;align=center;verticalAlign=middle;resizable=0;points=[];" vertex="1" connectable="0" parent="kcl3Uq8IHJ8QSEK5oFKa-158">
          <mxGeometry x="0.095" y="1" relative="1" as="geometry">
            <mxPoint x="1" as="offset" />
          </mxGeometry>
        </mxCell>
        <mxCell id="kcl3Uq8IHJ8QSEK5oFKa-163" value="" style="endArrow=none;dashed=1;html=1;dashPattern=1 3;strokeWidth=2;" edge="1" parent="1">
          <mxGeometry width="50" height="50" relative="1" as="geometry">
            <mxPoint x="150" y="280" as="sourcePoint" />
            <mxPoint x="610" y="280" as="targetPoint" />
          </mxGeometry>
        </mxCell>
        <mxCell id="kcl3Uq8IHJ8QSEK5oFKa-165" value="" style="endArrow=none;dashed=1;html=1;dashPattern=1 3;strokeWidth=2;" edge="1" parent="1">
          <mxGeometry width="50" height="50" relative="1" as="geometry">
            <mxPoint x="610" y="280" as="sourcePoint" />
            <mxPoint x="610" y="430" as="targetPoint" />
          </mxGeometry>
        </mxCell>
        <mxCell id="kcl3Uq8IHJ8QSEK5oFKa-168" value="" style="endArrow=classic;html=1;entryX=0.5;entryY=1;entryDx=0;entryDy=0;" edge="1" parent="1" source="kcl3Uq8IHJ8QSEK5oFKa-159" target="kcl3Uq8IHJ8QSEK5oFKa-162">
          <mxGeometry width="50" height="50" relative="1" as="geometry">
            <mxPoint x="650" y="520" as="sourcePoint" />
            <mxPoint x="700" y="470" as="targetPoint" />
          </mxGeometry>
        </mxCell>
        <mxCell id="kcl3Uq8IHJ8QSEK5oFKa-169" value="" style="endArrow=classic;html=1;exitX=0;exitY=0.5;exitDx=0;exitDy=0;" edge="1" parent="1" source="kcl3Uq8IHJ8QSEK5oFKa-162">
          <mxGeometry width="50" height="50" relative="1" as="geometry">
            <mxPoint x="620" y="610" as="sourcePoint" />
            <mxPoint x="610" y="400" as="targetPoint" />
          </mxGeometry>
        </mxCell>
        <mxCell id="kcl3Uq8IHJ8QSEK5oFKa-170" value="Y" style="edgeLabel;html=1;align=center;verticalAlign=middle;resizable=0;points=[];" vertex="1" connectable="0" parent="kcl3Uq8IHJ8QSEK5oFKa-169">
          <mxGeometry x="-0.3556" relative="1" as="geometry">
            <mxPoint as="offset" />
          </mxGeometry>
        </mxCell>
        <mxCell id="kcl3Uq8IHJ8QSEK5oFKa-177" value="" style="endArrow=classic;html=1;exitX=0.5;exitY=1;exitDx=0;exitDy=0;" edge="1" parent="1" source="kcl3Uq8IHJ8QSEK5oFKa-171" target="kcl3Uq8IHJ8QSEK5oFKa-172">
          <mxGeometry width="50" height="50" relative="1" as="geometry">
            <mxPoint x="735" y="545" as="sourcePoint" />
            <mxPoint x="799" y="700" as="targetPoint" />
          </mxGeometry>
        </mxCell>
        <mxCell id="kcl3Uq8IHJ8QSEK5oFKa-179" value="" style="endArrow=classic;html=1;exitX=0;exitY=0.5;exitDx=0;exitDy=0;edgeStyle=orthogonalEdgeStyle;" edge="1" parent="1" source="kcl3Uq8IHJ8QSEK5oFKa-172">
          <mxGeometry width="50" height="50" relative="1" as="geometry">
            <mxPoint x="620" y="600" as="sourcePoint" />
            <mxPoint x="270" y="760" as="targetPoint" />
          </mxGeometry>
        </mxCell>
        <mxCell id="kcl3Uq8IHJ8QSEK5oFKa-206" value="" style="endArrow=classic;html=1;" edge="1" parent="1" target="kcl3Uq8IHJ8QSEK5oFKa-137">
          <mxGeometry width="50" height="50" relative="1" as="geometry">
            <mxPoint x="870" y="290" as="sourcePoint" />
            <mxPoint x="760" y="540" as="targetPoint" />
          </mxGeometry>
        </mxCell>
        <mxCell id="kcl3Uq8IHJ8QSEK5oFKa-208" value="" style="endArrow=classic;html=1;exitX=1;exitY=0.5;exitDx=0;exitDy=0;entryX=0.5;entryY=1;entryDx=0;entryDy=0;edgeStyle=orthogonalEdgeStyle;" edge="1" parent="1" source="kcl3Uq8IHJ8QSEK5oFKa-132" target="kcl3Uq8IHJ8QSEK5oFKa-204">
          <mxGeometry width="50" height="50" relative="1" as="geometry">
            <mxPoint x="710" y="590" as="sourcePoint" />
            <mxPoint x="760" y="540" as="targetPoint" />
          </mxGeometry>
        </mxCell>
        <mxCell id="kcl3Uq8IHJ8QSEK5oFKa-209" value="" style="endArrow=classic;html=1;exitX=1;exitY=0.5;exitDx=0;exitDy=0;edgeStyle=orthogonalEdgeStyle;" edge="1" parent="1" source="kcl3Uq8IHJ8QSEK5oFKa-204" target="kcl3Uq8IHJ8QSEK5oFKa-138">
          <mxGeometry width="50" height="50" relative="1" as="geometry">
            <mxPoint x="730" y="650" as="sourcePoint" />
            <mxPoint x="780" y="600" as="targetPoint" />
          </mxGeometry>
        </mxCell>
        <mxCell id="kcl3Uq8IHJ8QSEK5oFKa-213" value="Y" style="edgeLabel;html=1;align=center;verticalAlign=middle;resizable=0;points=[];" vertex="1" connectable="0" parent="kcl3Uq8IHJ8QSEK5oFKa-209">
          <mxGeometry x="-0.839" y="1" relative="1" as="geometry">
            <mxPoint as="offset" />
          </mxGeometry>
        </mxCell>
        <mxCell id="kcl3Uq8IHJ8QSEK5oFKa-214" value="" style="endArrow=classic;html=1;entryX=0.5;entryY=0;entryDx=0;entryDy=0;edgeStyle=orthogonalEdgeStyle;exitX=1;exitY=0.5;exitDx=0;exitDy=0;" edge="1" parent="1" source="kcl3Uq8IHJ8QSEK5oFKa-204" target="kcl3Uq8IHJ8QSEK5oFKa-131">
          <mxGeometry width="50" height="50" relative="1" as="geometry">
            <mxPoint x="1120" y="370" as="sourcePoint" />
            <mxPoint x="790" y="640" as="targetPoint" />
          </mxGeometry>
        </mxCell>
        <mxCell id="kcl3Uq8IHJ8QSEK5oFKa-216" value="" style="endArrow=classic;html=1;exitX=0.5;exitY=1;exitDx=0;exitDy=0;" edge="1" parent="1" source="kcl3Uq8IHJ8QSEK5oFKa-140" target="kcl3Uq8IHJ8QSEK5oFKa-139">
          <mxGeometry width="50" height="50" relative="1" as="geometry">
            <mxPoint x="740" y="690" as="sourcePoint" />
            <mxPoint x="790" y="640" as="targetPoint" />
          </mxGeometry>
        </mxCell>
        <mxCell id="kcl3Uq8IHJ8QSEK5oFKa-218" value="" style="endArrow=classic;html=1;exitX=0.442;exitY=1.017;exitDx=0;exitDy=0;exitPerimeter=0;" edge="1" parent="1" source="kcl3Uq8IHJ8QSEK5oFKa-131" target="kcl3Uq8IHJ8QSEK5oFKa-141">
          <mxGeometry width="50" height="50" relative="1" as="geometry">
            <mxPoint x="1270" y="550" as="sourcePoint" />
            <mxPoint x="1320" y="500" as="targetPoint" />
          </mxGeometry>
        </mxCell>
        <mxCell id="kcl3Uq8IHJ8QSEK5oFKa-215" value="" style="endArrow=classic;html=1;exitX=0.5;exitY=1;exitDx=0;exitDy=0;entryX=0;entryY=0.75;entryDx=0;entryDy=0;edgeStyle=orthogonalEdgeStyle;" edge="1" parent="1" source="kcl3Uq8IHJ8QSEK5oFKa-138" target="kcl3Uq8IHJ8QSEK5oFKa-139">
          <mxGeometry width="50" height="50" relative="1" as="geometry">
            <mxPoint x="1131" y="903" as="sourcePoint" />
            <mxPoint x="1181" y="860" as="targetPoint" />
          </mxGeometry>
        </mxCell>
      </root>
    </mxGraphModel>
  </diagram>
</mxfile>
